<?xml version="1.0" encoding="utf-8"?>
<!-- Generator: Adobe Illustrator 23.0.1, SVG Export Plug-In . SVG Version: 6.00 Build 0)  -->
<svg version="1.1" id="Layer_1" xmlns="http://www.w3.org/2000/svg" xmlns:xlink="http://www.w3.org/1999/xlink" x="0px" y="0px"
	 viewBox="0 0 300 100" style="enable-background:new 0 0 300 100;" xml:space="preserve">
<style type="text/css">
	.st0{fill:#634519;}
	.st1{fill:#DFE9FF;stroke:#AAFFDC;stroke-width:3;stroke-miterlimit:10;}
</style>
<rect class="st0" width="300" height="100"/>
<path class="st1" d="M29.5,29C45.8,29,59,16,59,0H0C0,16,13.2,29,29.5,29z"/>
<path class="st1" d="M75.5,58C91.8,58,105,32,105,0H46C46,32,59.2,58,75.5,58z"/>
<path class="st1" d="M113.5,37C129.8,37,143,20.4,143,0H84C84,20.4,97.2,37,113.5,37z"/>
<path class="st1" d="M179.5,37C195.8,37,209,20.4,209,0h-59C150,20.4,163.2,37,179.5,37z"/>
<path class="st1" d="M224.5,43C240.8,43,254,23.7,254,0h-59C195,23.7,208.2,43,224.5,43z"/>
<path class="st1" d="M270.5,50C286.8,50,300,27.6,300,0h-59C241,27.6,254.2,50,270.5,50z"/>
<path class="st1" d="M143,37c16.3,0,29.5-16.6,29.5-37h-59C113.5,20.4,126.7,37,143,37z"/>
</svg>
